<svg xmlns="http://www.w3.org/2000/svg" version="1.1" xmlns:xlink="http://www.w3.org/1999/xlink" xmlns:svgjs="http://svgjs.dev/svgjs" width="1000" height="623" viewBox="0 0 1000 623"><g transform="matrix(1,0,0,1,-0.6060606060606233,120.40045654929867)"><svg viewBox="0 0 396 247" data-background-color="#ffffff" preserveAspectRatio="xMidYMid meet" height="623" width="1000" xmlns="http://www.w3.org/2000/svg" xmlns:xlink="http://www.w3.org/1999/xlink"><g id="tight-bounds" transform="matrix(1,0,0,1,0.2400000000000091,-0.09999999999999432)"><svg viewBox="0 0 395.52 247.2" height="247.2" width="395.52"><g><svg></svg></g><g><svg viewBox="0 0 395.52 247.2" height="247.2" width="395.52"><g transform="matrix(1,0,0,1,75.54432,57.280698928301874)"><svg viewBox="0 0 244.43135999999998 132.63860214339624" height="132.63860214339624" width="244.43135999999998"><g><svg viewBox="0 0 244.43135999999998 132.63860214339624" height="132.63860214339624" width="244.43135999999998"><g><svg viewBox="0 0 244.43135999999998 132.63860214339624" height="132.63860214339624" width="244.43135999999998"><g><svg viewBox="0 0 244.43135999999998 132.63860214339624" height="132.63860214339624" width="244.43135999999998"><g id="textblocktransform"><svg viewBox="0 0 244.43135999999998 132.63860214339624" height="132.63860214339624" width="244.43135999999998" id="textblock"><g><svg viewBox="0 0 244.43135999999998 132.63860214339624" height="132.63860214339624" width="244.43135999999998"><g transform="matrix(1,0,0,1,0,0)"><svg width="244.43135999999998" viewBox="1.75 -35.25 66.25 35.95000076293945" height="132.63860214339624" data-palette-color="#ee3e38"><path d="M15.25-35.25Q18.1-35.25 20.35-34.23 22.6-33.2 24.6-31.25L24.6-31.25 21.4-27.95Q19.85-29.3 18.5-29.88 17.15-30.45 15.45-30.45L15.45-30.45Q12.15-30.45 10.28-27.5 8.4-24.55 8.4-17.3L8.4-17.3Q8.4-12.2 9.08-9.33 9.75-6.45 11.08-5.3 12.4-4.15 14.55-4.15L14.55-4.15Q16.8-4.15 18.65-5.4L18.65-5.4 18.65-14.75 14.75-14.75 14.1-19.5 24.7-19.5 24.7-2.6Q22.55-1.05 19.93-0.18 17.3 0.7 14.6 0.7L14.6 0.7Q8.15 0.7 4.95-3.68 1.75-8.05 1.75-17.3L1.75-17.3Q1.75-23.3 3.53-27.33 5.3-31.35 8.35-33.3 11.4-35.25 15.25-35.25L15.25-35.25ZM65.8-34.55L68 0 61.95 0 61.35-14.6Q61.05-22.6 61.05-26L61.05-26 61.1-28.6 56.35-3.8 50.35-3.8 45.4-28.65Q45.45-27.15 45.45-24.05L45.45-24.05Q45.45-18.8 45.25-14.4L45.25-14.4 44.7 0 38.75 0 40.95-34.55 48.95-34.55 53.45-10.2 57.65-34.55 65.8-34.55Z" opacity="1" transform="matrix(1,0,0,1,0,0)" fill="#ee3e38" class="undefined-text-0" data-fill-palette-color="primary" id="text-0"></path></svg></g></svg></g></svg></g></svg></g><g></g></svg></g></svg></g></svg></g><g><path d="M124.244 25.968A122.216 122.216 0 0 1 271.276 25.968L259.315 25.968A110.254 110.254 0 0 0 136.205 25.968L124.244 25.968M124.244 221.232A122.216 122.216 0 0 0 271.276 221.232L259.315 221.232A110.254 110.254 0 0 1 136.205 221.232L124.244 221.232" fill="#ee3e38" stroke="transparent" data-fill-palette-color="tertiary"></path></g></svg></g><defs></defs></svg><rect width="395.52" height="247.2" fill="none" stroke="none" visibility="hidden"></rect></g></svg></g></svg>